<svg height="56" viewBox="0 0 79 56" width="79" xmlns="http://www.w3.org/2000/svg"><path d="m0 0h79v56h-79z" fill="none"/><path d="m28.0116 50.6912c.0177.3085.1047.6006.2536.8588h-20.3948l-.5.45h-3l-.5-.45h-2.8703c-.516-.0454-1.009-.4821-1-1v-.55h5.0002s-.0007-29.1132 0-29.1497c.0189-.9581.8132-1.8693 1.75-1.85l44.4996.0095c.978.0118 1.7385.8403 1.75 1.8405v1.15h-1.4998v-.9608c0-.416-.0932-.4392-.5-.4392 0 0-18.9976-.0699-19-.0305-.032.5417-.4703 1.0632-1 1.0305h-4c-.5455-.038-.9629-.4725-1-1.0305l-19 .0305c-.4067 0-.5.1272-.5.4392v28.9605h21.5v.55c-.0009.048.0087.0939.0114.1412zm50.9884-.6912v.65c-.0682.5161-.5083.9003-1.0265.9003-.0078 0-.0157-.0001-.0235-.0003h-1.95l-.55.45h-2.9999l-.45-.45h-35.9998l-.5.45h-2.9999l-.5-.45h-2.1c-.4666-.041-.8162-.407-.8755-.8588-.0063-.0479-.0255-.0916-.0247-.1412v-.55h4.0021v-25.2497c-.0019-.0386-.0025-.0772-.0016-.1158.0184-.9097.7616-1.6346 1.6673-1.6345l38.5822.0003c.9617.0114 1.7386.7883 1.75 1.75v25.2497h3.9999zm-5.55-25.004c0-.4-.1-.5-.4999-.5l-16.4501.004c0 .4714-.459 1-1 1h-3c-.5363-.0364-.963-.4631-.9998-.9993 0-.0002-.0002-.0005-.0002-.0007l-16.4977-.004c-.4 0-.5.1516-.5.4516v25.0524h38.9478v-25.004z" fill="#1d1d1f"/></svg>