<svg height="54" viewBox="0 0 34 54" width="34" xmlns="http://www.w3.org/2000/svg"><path d="m0 0h34v54h-34z" fill="none"/><path d="m17 16.5438c9.9364 0 16.5 7.0705 16.5 17.7588 0 4.9229-1.4384 10.3414-3.8522 14.554-.248.4626-.7275.6278-1.2069.4791-.6944 1.0573-1.8848 1.4537-3.2735 1.0573-1.7194-.5121-2.4965-1.9659-1.984-3.7004l2.4469-8.0452c.5125-1.7015 1.9344-2.478 3.6869-1.9659.8101.2478 1.4053.6938 1.769 1.2885.1819-1.239.2645-2.4615.2645-3.6674 0-9.3502-5.7535-15.6113-14.3507-15.6113-8.6137 0-14.3507 6.261-14.3507 15.6113 0 1.2059.0827 2.4284.2645 3.6509.3472-.5782.9424-1.0242 1.7525-1.272 1.7525-.5121 3.1743.2643 3.6869 1.9659l2.4469 8.0452c.5125 1.7181-.2645 3.1883-1.984 3.7004-1.3888.3965-2.5792 0-3.2735-1.0573-.4795.1487-.9589-.0165-1.2069-.4791-2.4138-4.2126-3.8357-9.6311-3.8357-14.554 0-10.6883 6.5471-17.7588 16.5-17.7588z" fill="#1d1d1f"/></svg>