<?xml version="1.0" encoding="UTF-8"?>
<!DOCTYPE svg PUBLIC "-//W3C//DTD SVG 1.1//EN" "http://www.w3.org/Graphics/SVG/1.1/DTD/svg11.dtd">
<svg xmlns="http://www.w3.org/2000/svg" version="1.1" width="500px" height="500px" style="shape-rendering:geometricPrecision; text-rendering:geometricPrecision; image-rendering:optimizeQuality; fill-rule:evenodd; clip-rule:evenodd" xmlns:xlink="http://www.w3.org/1999/xlink">
<g><path style="opacity:1" fill="#0f0f0f" d="M 157.5,112.5 C 170.504,112.333 183.504,112.5 196.5,113C 197.428,113.388 198.095,114.055 198.5,115C 199.098,117.959 199.431,120.959 199.5,124C 199.691,127.709 199.025,131.209 197.5,134.5C 187.213,135.31 176.88,135.81 166.5,136C 165.14,137.938 165.473,139.604 167.5,141C 175.558,142.007 183.558,143.34 191.5,145C 196.598,146.433 200.098,149.6 202,154.5C 209.317,186.35 196.817,199.684 164.5,194.5C 156.258,194.493 148.091,194.159 140,193.5C 139.169,186.808 139.336,180.142 140.5,173.5C 152.121,172.687 163.787,172.187 175.5,172C 176.833,170.333 176.833,168.667 175.5,167C 167.47,165.83 159.47,164.496 151.5,163C 140.803,158.814 136.803,150.981 139.5,139.5C 136.861,124.508 142.861,115.508 157.5,112.5 Z"/></g>
<g><path style="opacity:1" fill="#0c0c0c" d="M 236.5,114.5 C 236.167,129.182 236.501,143.848 237.5,158.5C 238.298,158.043 238.631,157.376 238.5,156.5C 239.763,151.968 241.597,147.635 244,143.5C 246.306,141.112 249.139,140.112 252.5,140.5C 255.253,140.353 257.753,141.02 260,142.5C 262.403,146.635 264.237,150.968 265.5,155.5C 265.987,156.473 266.487,157.473 267,158.5C 267.5,143.837 267.667,129.17 267.5,114.5C 267.611,113.883 267.944,113.383 268.5,113C 275.833,112.333 283.167,112.333 290.5,113C 291,113.5 291.5,114 292,114.5C 292.667,132.833 292.667,151.167 292,169.5C 289.999,178.178 286.832,186.345 282.5,194C 275.117,194.799 267.783,194.632 260.5,193.5C 257.837,186.677 255.671,179.677 254,172.5C 252.667,171.167 251.333,171.167 250,172.5C 248.179,179.975 245.679,187.142 242.5,194C 235.5,194.667 228.5,194.667 221.5,194C 217.366,186.607 214.199,178.773 212,170.5C 211.333,151.833 211.333,133.167 212,114.5C 212.5,114 213,113.5 213.5,113C 220.833,112.333 228.167,112.333 235.5,113C 236.056,113.383 236.389,113.883 236.5,114.5 Z"/></g>
<g><path style="opacity:1" fill="#090909" d="M 357.5,134.5 C 352.833,134.5 348.167,134.5 343.5,134.5C 343.171,147.344 343.505,160.011 344.5,172.5C 349.43,172.197 354.263,172.531 359,173.5C 359.811,180.414 359.645,187.248 358.5,194C 340.167,194.667 321.833,194.667 303.5,194C 302.357,187.582 302.19,181.082 303,174.5C 303.383,173.944 303.883,173.611 304.5,173.5C 309.167,173.5 313.833,173.5 318.5,173.5C 318.5,160.5 318.5,147.5 318.5,134.5C 313.833,134.5 309.167,134.5 304.5,134.5C 303.883,134.389 303.383,134.056 303,133.5C 302.333,127.167 302.333,120.833 303,114.5C 303.5,114 304,113.5 304.5,113C 322.167,112.333 339.833,112.333 357.5,113C 358,113.5 358.5,114 359,114.5C 359.167,117.833 359.333,121.167 359.5,124.5C 359.486,128.239 358.82,131.572 357.5,134.5 Z"/></g>
<g><path style="opacity:0.78" fill="#3c3c3c" d="M 236.5,114.5 C 237.167,128.5 237.833,142.5 238.5,156.5C 238.631,157.376 238.298,158.043 237.5,158.5C 236.501,143.848 236.167,129.182 236.5,114.5 Z"/></g>
<g><path style="opacity:0.686" fill="#5b5b5b" d="M 357.5,134.5 C 353.366,135.485 349.032,135.818 344.5,135.5C 344.5,147.833 344.5,160.167 344.5,172.5C 343.505,160.011 343.171,147.344 343.5,134.5C 348.167,134.5 352.833,134.5 357.5,134.5 Z"/></g>
<g><path style="opacity:0.247" fill="#a3a3a3" d="M 304.5,134.5 C 309.167,134.5 313.833,134.5 318.5,134.5C 318.5,147.5 318.5,160.5 318.5,173.5C 313.833,173.5 309.167,173.5 304.5,173.5C 308.634,172.515 312.968,172.182 317.5,172.5C 317.5,160.167 317.5,147.833 317.5,135.5C 312.968,135.818 308.634,135.485 304.5,134.5 Z"/></g>
<g><path style="opacity:0.369" fill="#9d9d9d" d="M 267.5,114.5 C 267.667,129.17 267.5,143.837 267,158.5C 266.487,157.473 265.987,156.473 265.5,155.5C 266.167,141.833 266.833,128.167 267.5,114.5 Z"/></g>
<g><path style="opacity:1" fill="#0e0e0e" d="M 197.5,228.5 C 187.167,228.5 176.833,228.5 166.5,228.5C 166.183,232.702 166.517,236.702 167.5,240.5C 174.841,240.334 182.174,240.5 189.5,241C 190.833,248 190.833,255 189.5,262C 182.174,262.5 174.841,262.666 167.5,262.5C 167.803,270.889 167.47,279.222 166.5,287.5C 162.333,287.833 158.167,288.167 154,288.5C 149.411,288.464 145.077,287.798 141,286.5C 140.333,260.5 140.333,234.5 141,208.5C 141.5,208 142,207.5 142.5,207C 160.833,206.333 179.167,206.333 197.5,207C 198.849,207.772 199.682,208.939 200,210.5C 200.667,215.5 200.667,220.5 200,225.5C 199.764,227.119 198.931,228.119 197.5,228.5 Z"/></g>
<g><path style="opacity:1" fill="#0a0a0a" d="M 232.5,286.5 C 232.5,267.167 232.5,247.833 232.5,228.5C 225.833,228.5 219.167,228.5 212.5,228.5C 210.97,225.305 210.304,221.805 210.5,218C 210.667,215.5 210.833,213 211,210.5C 211.318,208.939 212.151,207.772 213.5,207C 234.833,206.333 256.167,206.333 277.5,207C 278,207.5 278.5,208 279,208.5C 279.667,214.833 279.667,221.167 279,227.5C 278.5,228 278,228.5 277.5,229C 271.175,229.5 264.842,229.666 258.5,229.5C 258.667,248.836 258.5,268.17 258,287.5C 253.748,288.152 249.415,288.486 245,288.5C 240.443,288.491 236.276,287.825 232.5,286.5 Z"/></g>
<g><path style="opacity:1" fill="#0e0e0e" d="M 306.5,209.5 C 309.152,209.59 311.485,208.924 313.5,207.5C 326.513,206.204 339.513,206.204 352.5,207.5C 353.833,214.5 353.833,221.5 352.5,228.5C 342.115,229.024 331.782,229.858 321.5,231C 320.167,242.333 320.167,253.667 321.5,265C 331.979,266.131 342.479,266.965 353,267.5C 353.811,274.414 353.645,281.248 352.5,288C 338.833,288.667 325.167,288.667 311.5,288C 301.667,286.167 295.833,280.333 294,270.5C 293.333,255.167 293.333,239.833 294,224.5C 295.38,217.02 299.546,212.02 306.5,209.5 Z"/></g>
<g><path style="opacity:0.941" fill="#676767" d="M 313.5,207.5 C 311.485,208.924 309.152,209.59 306.5,209.5C 308.515,208.076 310.848,207.41 313.5,207.5 Z"/></g>
<g><path style="opacity:0.243" fill="#c0c0c0" d="M 197.5,228.5 C 187.681,229.494 177.681,229.827 167.5,229.5C 167.5,233.167 167.5,236.833 167.5,240.5C 166.517,236.702 166.183,232.702 166.5,228.5C 176.833,228.5 187.167,228.5 197.5,228.5 Z"/></g>
<g><path style="opacity:0.396" fill="#949494" d="M 212.5,228.5 C 219.167,228.5 225.833,228.5 232.5,228.5C 232.5,247.833 232.5,267.167 232.5,286.5C 231.503,267.674 231.17,248.674 231.5,229.5C 224.978,229.823 218.645,229.49 212.5,228.5 Z"/></g>
<g><path style="opacity:1" fill="#0a0a0a" d="M 206.5,335.5 C 206.41,338.152 207.076,340.485 208.5,342.5C 209.83,355.569 209.83,368.735 208.5,382C 200.5,382.667 192.5,382.667 184.5,382C 183.524,375.924 183.19,369.758 183.5,363.5C 177.021,362.509 170.354,362.176 163.5,362.5C 163.5,368.167 163.5,373.833 163.5,379.5C 163.586,380.496 163.252,381.329 162.5,382C 154.587,382.814 146.754,382.647 139,381.5C 138.333,368.5 138.333,355.5 139,342.5C 143.072,329.283 147.739,316.283 153,303.5C 153.903,302.299 155.069,301.465 156.5,301C 168.929,300.041 181.263,300.374 193.5,302C 198.712,312.798 203.045,323.965 206.5,335.5 Z M 175.5,323.5 C 175.932,324.71 176.599,325.71 177.5,326.5C 178.636,331.24 179.97,335.907 181.5,340.5C 176.167,341.833 170.833,341.833 165.5,340.5C 167.426,335.221 169.26,329.888 171,324.5C 172.356,323.62 173.856,323.286 175.5,323.5 Z"/></g>
<g><path style="opacity:1" fill="#0c0c0c" d="M 279.5,306.5 C 279.427,308.027 280.094,309.027 281.5,309.5C 282.927,311.148 283.76,313.148 284,315.5C 284.667,320.5 284.667,325.5 284,330.5C 283.394,333.548 281.894,336.048 279.5,338C 285.588,339.09 289.421,342.59 291,348.5C 291.667,359.5 291.667,370.5 291,381.5C 282.912,382.648 274.746,382.815 266.5,382C 265.818,374.197 265.152,366.364 264.5,358.5C 263.975,357.808 263.308,357.308 262.5,357C 257.177,356.501 251.844,356.334 246.5,356.5C 246.666,364.174 246.5,371.841 246,379.5C 245.626,380.416 245.126,381.25 244.5,382C 240.5,382.167 236.5,382.333 232.5,382.5C 228.075,382.463 223.909,381.796 220,380.5C 219.333,354.5 219.333,328.5 220,302.5C 220.75,301.874 221.584,301.374 222.5,301C 237.5,300.333 252.5,300.333 267.5,301C 272.365,301.221 276.365,303.054 279.5,306.5 Z M 250.5,321.5 C 253.067,321.721 255.401,322.388 257.5,323.5C 258.403,326.391 258.736,329.391 258.5,332.5C 257.833,333.833 256.833,334.833 255.5,335.5C 252.5,335.5 249.5,335.5 246.5,335.5C 246.5,331.167 246.5,326.833 246.5,322.5C 248.099,322.768 249.432,322.434 250.5,321.5 Z"/></g>
<g><path style="opacity:1" fill="#090909" d="M 362.5,322.5 C 355.833,322.5 349.167,322.5 342.5,322.5C 342.5,342.167 342.5,361.833 342.5,381.5C 334.167,382.833 325.833,382.833 317.5,381.5C 317.5,361.833 317.5,342.167 317.5,322.5C 310.833,322.5 304.167,322.5 297.5,322.5C 296.883,322.389 296.383,322.056 296,321.5C 295.333,315.5 295.333,309.5 296,303.5C 296.308,302.692 296.808,302.025 297.5,301.5C 319.124,300.345 340.79,300.178 362.5,301C 363,301.5 363.5,302 364,302.5C 364.667,308.833 364.667,315.167 364,321.5C 363.617,322.056 363.117,322.389 362.5,322.5 Z"/></g>
<g><path style="opacity:0.545" fill="#868686" d="M 279.5,306.5 C 280.906,306.973 281.573,307.973 281.5,309.5C 280.094,309.027 279.427,308.027 279.5,306.5 Z"/></g>
<g><path style="opacity:0.824" fill="#929292" d="M 175.5,323.5 C 177.048,323.821 177.715,324.821 177.5,326.5C 176.599,325.71 175.932,324.71 175.5,323.5 Z"/></g>
<g><path style="opacity:0.734" fill="#535353" d="M 362.5,322.5 C 356.355,323.49 350.022,323.823 343.5,323.5C 343.83,343.007 343.497,362.341 342.5,381.5C 342.5,361.833 342.5,342.167 342.5,322.5C 349.167,322.5 355.833,322.5 362.5,322.5 Z"/></g>
<g><path style="opacity:0.045" fill="#cdcdcd" d="M 250.5,321.5 C 249.432,322.434 248.099,322.768 246.5,322.5C 246.5,326.833 246.5,331.167 246.5,335.5C 249.5,335.5 252.5,335.5 255.5,335.5C 252.375,336.479 249.042,336.813 245.5,336.5C 245.5,331.5 245.5,326.5 245.5,321.5C 247.167,321.5 248.833,321.5 250.5,321.5 Z"/></g>
<g><path style="opacity:0.478" fill="#787878" d="M 257.5,323.5 C 258.765,324.514 259.431,326.014 259.5,328C 259.492,329.707 259.158,331.207 258.5,332.5C 258.736,329.391 258.403,326.391 257.5,323.5 Z"/></g>
<g><path style="opacity:0.654" fill="#636363" d="M 297.5,322.5 C 304.167,322.5 310.833,322.5 317.5,322.5C 317.5,342.167 317.5,361.833 317.5,381.5C 316.503,362.341 316.17,343.007 316.5,323.5C 309.978,323.823 303.645,323.49 297.5,322.5 Z"/></g>
<g><path style="opacity:0.408" fill="#929292" d="M 165.5,340.5 C 170.833,341.833 176.167,341.833 181.5,340.5C 182.043,340.56 182.376,340.893 182.5,341.5C 176.5,342.833 170.5,342.833 164.5,341.5C 164.624,340.893 164.957,340.56 165.5,340.5 Z"/></g>
<g><path style="opacity:0.745" fill="#686868" d="M 206.5,335.5 C 207.924,337.515 208.59,339.848 208.5,342.5C 207.076,340.485 206.41,338.152 206.5,335.5 Z"/></g>
<g><path style="opacity:0.063" fill="#e9e9e9" d="M 183.5,363.5 C 177.167,363.5 170.833,363.5 164.5,363.5C 164.821,369.026 164.488,374.36 163.5,379.5C 164.488,374.36 164.821,369.026 164.5,363.5C 170.833,363.5 177.167,363.5 183.5,363.5 Z"/></g>
</svg>
