<svg height="56" viewBox="0 0 56 56" width="56" xmlns="http://www.w3.org/2000/svg"><path d="m0 0h56v56h-56z" fill="none"/><path d="m38.9996 52.6499v-44.3001c.0112-.7345-.5751-1.339-1.3095-1.3502-.0168-.0003-.0337-.0002-.0505.0002-1.79.5753-3.549 1.2429-5.27 2-.787.3299-1.3182 1.0782-1.37 1.93v39.2c.0695.828.5937 1.5487 1.36 1.87 0 0 4.67 1.91 5.27 2 .7455.011 1.3588-.5844 1.3699-1.3299 0-.0067.0001-.0134.0001-.0201zm-24.42-43.6501h7.34c-.592.2882-.9543.9025-.92 1.56v39.88c-.0738.6666.3009 1.302.92 1.56h-7.3401c-.8671.0055-1.5744-.6929-1.5799-1.56v-39.88c.0109-.8648.7151-1.5601 1.58-1.56zm9 0h7.34c-.592.2882-.9543.9025-.92 1.56v39.88c-.0738.6666.3009 1.302.92 1.56h-7.3401c-.8671.0055-1.5744-.6929-1.5799-1.56v-39.88c.0109-.8648.7151-1.5601 1.58-1.56zm20.4208 3.0002v37c0 1.6569-1.3431 3-3 3h-1.0009v-2h1.0009c.5523 0 1-.4478 1-1v-37c0-.5523-.4477-1-1-1h-1.0009v-2h1.0009c1.6569 0 3 1.3431 3 3z" fill="#1d1d1f"/></svg>