<?xml version="1.0" encoding="UTF-8"?>
<svg version="1.1" xmlns="http://www.w3.org/2000/svg" width="384" height="95">
<path d="M0 0 C23.1 0 46.2 0 70 0 C70 9.9 70 19.8 70 30 C53.5 30 37 30 20 30 C20 33.3 20 36.6 20 40 C33.2 40 46.4 40 60 40 C60 43.3 60 46.6 60 50 C63.3 50 66.6 50 70 50 C70 59.9 70 69.8 70 80 C66.7 80 63.4 80 60 80 C60 83.3 60 86.6 60 90 C36.9 90 13.8 90 -10 90 C-10 80.1 -10 70.2 -10 60 C6.5 60 23 60 40 60 C40 56.7 40 53.4 40 50 C26.8 50 13.6 50 0 50 C0 46.7 0 43.4 0 40 C-3.3 40 -6.6 40 -10 40 C-10 30.1 -10 20.2 -10 10 C-6.7 10 -3.4 10 0 10 C0 6.7 0 3.4 0 0 Z " fill="#000000" transform="translate(12,3)"/>
<path d="M0 0 C9.9 0 19.8 0 30 0 C30 13.2 30 26.4 30 40 C33.3 40 36.6 40 40 40 C40 36.7 40 33.4 40 30 C43.3 30 46.6 30 50 30 C50 33.3 50 36.6 50 40 C53.3 40 56.6 40 60 40 C60 26.8 60 13.6 60 0 C69.9 0 79.8 0 90 0 C90 26.4 90 52.8 90 80 C86.7 80 83.4 80 80 80 C80 83.3 80 86.6 80 90 C76.7 90 73.4 90 70 90 C70 86.7 70 83.4 70 80 C66.7 80 63.4 80 60 80 C60 76.7 60 73.4 60 70 C56.7 70 53.4 70 50 70 C50 66.7 50 63.4 50 60 C46.7 60 43.4 60 40 60 C40 63.3 40 66.6 40 70 C36.7 70 33.4 70 30 70 C30 73.3 30 76.6 30 80 C26.7 80 23.4 80 20 80 C20 83.3 20 86.6 20 90 C16.7 90 13.4 90 10 90 C10 86.7 10 83.4 10 80 C6.7 80 3.4 80 0 80 C0 53.6 0 27.2 0 0 Z " fill="#000000" transform="translate(92,3)"/>
<path d="M0 0 C9.9 0 19.8 0 30 0 C30 29.7 30 59.4 30 90 C20.1 90 10.2 90 0 90 C0 60.3 0 30.6 0 0 Z " fill="#000000" transform="translate(192,3)"/>
<path d="M0 0 C23.1 0 46.2 0 70 0 C70 3.3 70 6.6 70 10 C73.3 10 76.6 10 80 10 C80 26.5 80 43 80 60 C76.7 60 73.4 60 70 60 C70 63.3 70 66.6 70 70 C56.8 70 43.6 70 30 70 C30 76.6 30 83.2 30 90 C20.1 90 10.2 90 0 90 C0 60.3 0 30.6 0 0 Z M30 30 C30 33.3 30 36.6 30 40 C36.6 40 43.2 40 50 40 C50 36.7 50 33.4 50 30 C43.4 30 36.8 30 30 30 Z " fill="#000000" transform="translate(232,3)"/>
<path d="M0 0 C19.8 0 39.6 0 60 0 C60 9.9 60 19.8 60 30 C50.1 30 40.2 30 30 30 C30 33.3 30 36.6 30 40 C39.9 40 49.8 40 60 40 C60 43.3 60 46.6 60 50 C50.1 50 40.2 50 30 50 C30 53.3 30 56.6 30 60 C39.9 60 49.8 60 60 60 C60 69.9 60 79.8 60 90 C40.2 90 20.4 90 0 90 C0 60.3 0 30.6 0 0 Z " fill="#000000" transform="translate(322,3)"/>
</svg>
