<svg viewBox="0 0 35 54" xmlns="http://www.w3.org/2000/svg"><path d="m35 47v-34h-2v-3.75a.75.75 0 0 0 -1.5 0v3.75h-28v-3.75a.75.75 0 0 0 -1.5 0v3.75h-2v34h1.75v1.5a.5.5 0 0 1 -.5.5h-1.25v1h5v-1h-1.25a.5.5 0 0 1 -.5-.5v-1.5h28.5v1.5a.5.5 0 0 1 -.5.5h-1.25v1h5v-1h-1.25a.5.5 0 0 1 -.5-.5v-1.5zm-17.053-22.08a1.97 1.97 0 0 1 1.33-.7 2.131 2.131 0 0 1 -.47 1.47 1.691 1.691 0 0 1 -1.34.65 1.937 1.937 0 0 1 .48-1.42zm2.59 7.33c-.38.56-.76 1.12-1.38 1.13-.6.01-.8-.36-1.48-.36s-.91.35-1.47.37c-.6.02-1.05-.6-1.43-1.16-.77-1.14-1.36-3.21-.57-4.61a2.186 2.186 0 0 1 1.86-1.15c.59-.01 1.13.39 1.48.39s.98-.47 1.73-.43a2.091 2.091 0 0 1 1.65.91 2.08 2.08 0 0 0 -.97 1.75 2.02 2.02 0 0 0 1.21 1.86 6.131 6.131 0 0 1 -.63 1.3z" fill="#1d1d1f"/></svg>