<svg height="56" viewBox="0 0 108 56" width="108" xmlns="http://www.w3.org/2000/svg"><path d="m0 0h108v56h-108z" fill="none"/><path d="m1.75 28v-.5c0-.9648.7852-1.75 1.75-1.75h22.5v-1.75h-23.5c-1.3807 0-2.5 1.1193-2.5 2.5v3.25c.9648 0 1.75-.7852 1.75-1.75zm71.25-10.5v24c0 .8284-.6716 1.5-1.5 1.5h-43c-.8284 0-1.5-.6716-1.5-1.5v-24c0-.8284.6716-1.5 1.5-1.5h43c.8284 0 1.5.6716 1.5 1.5zm-2 .5h-42v23h42zm-27 26v8h12v-8.5h-12zm-3 0v5.5c0 1.3807-1.1193 2.5-2.5 2.5h-36c-1.3807 0-2.5-1.1193-2.5-2.5v-19.25c1.2402 0 2.25-1.0093 2.25-2.25v-.5c0-.6895.5605-1.25 1.25-1.25h22.5v15.25c0 1.3785 1.1215 2.5 2.5 2.5zm-20.5088-7.1858c0 .0322 0 .0541.001.0665.0027.0183.0244.0244.0674.0244.104 0 .2065-.0262.3064-.0814.1013-.0541.1907-.1269.2705-.2205.0813-.0911.1426-.1953.1907-.3116.0474-.1174.0728-.2347.0728-.3503v-.0489c0-.014-.0017-.0289-.0071-.0455-.1173.007-.2328.0367-.3423.0953-.1104.0595-.2065.1366-.2861.2241-.085.0938-.1481.1979-.1987.3099-.0491.1138-.0745.225-.0745.338zm1.8409 2.3922c-.1909-.0839-.3397-.2108-.4447-.3781-.1077-.1664-.1593-.3492-.1593-.5505 0-.1918.0385-.3616.1128-.5025.078-.1436.2023-.2661.3722-.3686-.092-.14-.219-.2502-.3765-.3334-.161-.085-.3247-.127-.5017-.127-.0656 0-.1294.0079-.1924.0219-.0623.014-.1428.0394-.2478.0753-.106.0403-.1908.0692-.2478.0893-.0542.021-.0927.0306-.1145.0306-.0632 0-.1716-.0342-.3282-.1024-.1594-.0658-.2977-.0999-.415-.0999-.1586 0-.3064.0341-.4403.0999-.1348.0681-.2521.161-.3545.2852-.1016.1208-.183.268-.2407.4333-.0576.1673-.0858.3494-.0858.5453 0 .1279.0148.2574.0377.3923.0209.1357.0542.2678.0938.399.04.1348.0935.2617.1497.387.061.1225.1216.2363.1925.3395.0753.1121.1436.2031.2074.2775.0613.0753.1165.1348.1725.1794.056.0438.1093.0762.161.0963.05.0175.1007.027.1584.027.0359 0 .0892-.0095.1479-.027.0579-.0201.1243-.0395.196-.0629.0692-.0228.1393-.0447.2109-.064.0684-.0219.1349-.0306.1943-.0306.0553 0 .1139.0088.1838.0264.0664.0219.1339.041.2013.0629.0665.0219.1305.0421.1952.0613.0623.0185.1166.028.1611.028.0701 0 .1365-.0131.1987-.0471.0664-.0334.1287-.0789.1917-.1314.0306-.0341.0771-.0832.1357-.1522.0533-.0692.1111-.1515.1715-.2435.057-.0892.1121-.1916.1664-.2985.0525-.1085.0989-.2232.1366-.338zm80.6678 10.7936v-24.2708c-.0114-.9617-1.0382-1.7178-2-1.7292h-27v1.5h6.121c.0365.5364.3425.9635.879 1h3c.5209.0314.9686-.4792 1-1 .0023-.0379.0023.0171 0-.0208l16 .0208c.3999 0 .5.1.5.5v24h-38v-6h-1.5v6h-4.5v.55c-.0089.5179.484.9046 1 .95h2.121l.5.5h3l.5-.5h35.7582l.4501.5h3l.5499-.45 2.1208-.05c.5283.0118.9308-.3261 1-.85v-.65z" fill="#1d1d1f"/></svg>