<?xml version="1.0" encoding="UTF-8"?>
<!DOCTYPE svg PUBLIC "-//W3C//DTD SVG 1.1//EN" "http://www.w3.org/Graphics/SVG/1.1/DTD/svg11.dtd">
<svg xmlns="http://www.w3.org/2000/svg" version="1.1" width="500px" height="500px" style="shape-rendering:geometricPrecision; text-rendering:geometricPrecision; image-rendering:optimizeQuality; fill-rule:evenodd; clip-rule:evenodd" xmlns:xlink="http://www.w3.org/1999/xlink">
<g><path style="opacity:1" fill="#000000" d="M -0.5,-0.5 C 166.167,-0.5 332.833,-0.5 499.5,-0.5C 499.5,166.167 499.5,332.833 499.5,499.5C 332.833,499.5 166.167,499.5 -0.5,499.5C -0.5,332.833 -0.5,166.167 -0.5,-0.5 Z"/></g>
<g><path style="opacity:1" fill="#fdfdfd" d="M 153.5,113.5 C 168.412,113.176 183.245,113.509 198,114.5C 198.81,121.082 198.643,127.582 197.5,134C 187.167,134.333 176.833,134.667 166.5,135C 165.167,137 165.167,139 166.5,141C 174.123,142.551 181.79,143.884 189.5,145C 195.501,146.336 199.668,149.836 202,155.5C 202.667,163.5 202.667,171.5 202,179.5C 199.648,187.848 194.148,192.682 185.5,194C 170.259,194.824 155.092,194.657 140,193.5C 139.19,186.918 139.357,180.418 140.5,174C 152.167,173.667 163.833,173.333 175.5,173C 176.982,170.408 176.648,168.075 174.5,166C 165.198,165.815 156.198,164.148 147.5,161C 143.698,158.913 141.198,155.746 140,151.5C 139.333,143.167 139.333,134.833 140,126.5C 142.442,119.888 146.942,115.555 153.5,113.5 Z"/></g>
<g><path style="opacity:1" fill="#fbfbfb" d="M 265.5,155.5 C 265.987,156.473 266.487,157.473 267,158.5C 267.5,144.171 267.667,129.837 267.5,115.5C 267.611,114.883 267.944,114.383 268.5,114C 272.333,113.833 276.167,113.667 280,113.5C 284.26,113.539 288.26,114.206 292,115.5C 292.667,133.167 292.667,150.833 292,168.5C 289.421,177.238 286.255,185.738 282.5,194C 275.5,194.667 268.5,194.667 261.5,194C 258.621,186.697 256.121,179.197 254,171.5C 251.546,169.987 249.879,170.654 249,173.5C 247.482,179.925 245.648,186.259 243.5,192.5C 242.975,193.192 242.308,193.692 241.5,194C 234.586,194.811 227.752,194.645 221,193.5C 217.8,185.566 214.8,177.566 212,169.5C 211.333,151.167 211.333,132.833 212,114.5C 220.333,113.167 228.667,113.167 237,114.5C 237.333,128.5 237.667,142.5 238,156.5C 240.333,151.833 242.667,147.167 245,142.5C 249.413,141.368 253.913,141.201 258.5,142C 261.497,146.161 263.83,150.661 265.5,155.5 Z"/></g>
<g><path style="opacity:1" fill="#fcfcfc" d="M 357.5,134.5 C 352.833,134.5 348.167,134.5 343.5,134.5C 343.171,147.344 343.505,160.011 344.5,172.5C 348.846,172.334 353.179,172.501 357.5,173C 358,173.5 358.5,174 359,174.5C 359.667,180.5 359.667,186.5 359,192.5C 358.5,193 358,193.5 357.5,194C 339.833,194.667 322.167,194.667 304.5,194C 304,193.5 303.5,193 303,192.5C 302.333,186.5 302.333,180.5 303,174.5C 303.383,173.944 303.883,173.611 304.5,173.5C 309.167,173.5 313.833,173.5 318.5,173.5C 318.5,160.5 318.5,147.5 318.5,134.5C 314.167,134.5 309.833,134.5 305.5,134.5C 304.25,134.423 303.417,133.756 303,132.5C 302.333,126.833 302.333,121.167 303,115.5C 303.5,115 304,114.5 304.5,114C 322.5,113.333 340.5,113.333 358.5,114C 359.643,120.418 359.81,126.918 359,133.5C 358.617,134.056 358.117,134.389 357.5,134.5 Z"/></g>
<g><path style="opacity:1" fill="#707070" d="M 267.5,115.5 C 267.667,129.837 267.5,144.171 267,158.5C 266.487,157.473 265.987,156.473 265.5,155.5C 266.167,142.167 266.833,128.833 267.5,115.5 Z"/></g>
<g><path style="opacity:1" fill="#696969" d="M 305.5,134.5 C 309.833,134.5 314.167,134.5 318.5,134.5C 318.5,147.5 318.5,160.5 318.5,173.5C 313.833,173.5 309.167,173.5 304.5,173.5C 308.634,172.515 312.968,172.182 317.5,172.5C 317.5,160.167 317.5,147.833 317.5,135.5C 313.298,135.817 309.298,135.483 305.5,134.5 Z"/></g>
<g><path style="opacity:1" fill="#b4b4b4" d="M 357.5,134.5 C 353.366,135.485 349.032,135.818 344.5,135.5C 344.5,147.833 344.5,160.167 344.5,172.5C 343.505,160.011 343.171,147.344 343.5,134.5C 348.167,134.5 352.833,134.5 357.5,134.5 Z"/></g>
<g><path style="opacity:1" fill="#fbfbfb" d="M 196.5,228.5 C 186.5,228.5 176.5,228.5 166.5,228.5C 166.183,232.702 166.517,236.702 167.5,240.5C 174.508,240.334 181.508,240.5 188.5,241C 189.783,244.064 190.45,247.397 190.5,251C 190.333,254.167 190.167,257.333 190,260.5C 189.5,261 189,261.5 188.5,262C 181.174,262.5 173.841,262.666 166.5,262.5C 166.817,271.085 166.483,279.585 165.5,288C 157.833,288.667 150.167,288.667 142.5,288C 142,287.5 141.5,287 141,286.5C 140.333,260.833 140.333,235.167 141,209.5C 141.5,209 142,208.5 142.5,208C 161.167,207.333 179.833,207.333 198.5,208C 199.643,214.418 199.81,220.918 199,227.5C 198.329,228.252 197.496,228.586 196.5,228.5 Z"/></g>
<g><path style="opacity:1" fill="#fdfdfd" d="M 232.5,286.5 C 232.5,267.167 232.5,247.833 232.5,228.5C 226.167,228.5 219.833,228.5 213.5,228.5C 212.883,228.389 212.383,228.056 212,227.5C 211.19,220.918 211.357,214.418 212.5,208C 234.5,207.333 256.5,207.333 278.5,208C 279.643,214.418 279.81,220.918 279,227.5C 278.25,228.126 277.416,228.626 276.5,229C 270.509,229.499 264.509,229.666 258.5,229.5C 258.667,248.836 258.5,268.17 258,287.5C 249.912,288.648 241.746,288.815 233.5,288C 232.944,287.617 232.611,287.117 232.5,286.5 Z"/></g>
<g><path style="opacity:1" fill="#fafafa" d="M 310.5,207.5 C 324.745,207.176 338.912,207.51 353,208.5C 353.667,214.833 353.667,221.167 353,227.5C 352.5,228 352,228.5 351.5,229C 341.833,229.333 332.167,229.667 322.5,230C 321.667,230.833 320.833,231.667 320,232.5C 319.333,242.833 319.333,253.167 320,263.5C 320.308,264.308 320.808,264.975 321.5,265.5C 331.453,266.309 341.453,266.809 351.5,267C 352,267.5 352.5,268 353,268.5C 353.667,274.5 353.667,280.5 353,286.5C 352.5,287 352,287.5 351.5,288C 338.167,288.667 324.833,288.667 311.5,288C 301.213,286.047 295.38,279.88 294,269.5C 293.333,254.833 293.333,240.167 294,225.5C 295.905,216.099 301.405,210.099 310.5,207.5 Z"/></g>
<g><path style="opacity:1" fill="#4c4c4c" d="M 196.5,228.5 C 187.014,229.494 177.348,229.827 167.5,229.5C 167.5,233.167 167.5,236.833 167.5,240.5C 166.517,236.702 166.183,232.702 166.5,228.5C 176.5,228.5 186.5,228.5 196.5,228.5 Z"/></g>
<g><path style="opacity:1" fill="#7d7d7d" d="M 213.5,228.5 C 219.833,228.5 226.167,228.5 232.5,228.5C 232.5,247.833 232.5,267.167 232.5,286.5C 231.503,267.674 231.17,248.674 231.5,229.5C 225.31,229.823 219.31,229.49 213.5,228.5 Z"/></g>
<g><path style="opacity:1" fill="#fcfcfc" d="M 155.5,302.5 C 167.838,302.333 180.171,302.5 192.5,303C 199.483,316.15 204.983,329.983 209,344.5C 209.667,356.833 209.667,369.167 209,381.5C 208.5,382 208,382.5 207.5,383C 200.167,383.667 192.833,383.667 185.5,383C 185,382.5 184.5,382 184,381.5C 183.501,375.509 183.334,369.509 183.5,363.5C 176.833,363.5 170.167,363.5 163.5,363.5C 163.811,370.09 163.478,376.59 162.5,383C 155.167,383.667 147.833,383.667 140.5,383C 140,382.5 139.5,382 139,381.5C 138.333,369.167 138.333,356.833 139,344.5C 143.161,329.865 148.661,315.865 155.5,302.5 Z"/></g>
<g><path style="opacity:1" fill="#fafafa" d="M 221.5,302.5 C 238.17,302.333 254.837,302.5 271.5,303C 276.91,304.743 280.744,308.243 283,313.5C 285.171,320.941 284.838,328.274 282,335.5C 280.833,336.667 279.667,337.833 278.5,339C 284.925,340.427 289.092,344.26 291,350.5C 291.667,360.833 291.667,371.167 291,381.5C 290.5,382 290,382.5 289.5,383C 282.167,383.667 274.833,383.667 267.5,383C 267,382.5 266.5,382 266,381.5C 265.667,374.167 265.333,366.833 265,359.5C 264.5,359 264,358.5 263.5,358C 257.509,357.501 251.509,357.334 245.5,357.5C 245.817,366.085 245.483,374.585 244.5,383C 236.833,383.667 229.167,383.667 221.5,383C 221,382.5 220.5,382 220,381.5C 219.333,355.833 219.333,330.167 220,304.5C 220.717,303.956 221.217,303.289 221.5,302.5 Z"/></g>
<g><path style="opacity:1" fill="#fefefe" d="M 361.5,323.5 C 355.167,323.5 348.833,323.5 342.5,323.5C 342.5,342.833 342.5,362.167 342.5,381.5C 342.389,382.117 342.056,382.617 341.5,383C 333.833,383.667 326.167,383.667 318.5,383C 317.944,382.617 317.611,382.117 317.5,381.5C 317.5,362.167 317.5,342.833 317.5,323.5C 311.167,323.5 304.833,323.5 298.5,323.5C 297.883,323.389 297.383,323.056 297,322.5C 296.19,315.918 296.357,309.418 297.5,303C 319.167,302.333 340.833,302.333 362.5,303C 363,303.5 363.5,304 364,304.5C 364.667,310.167 364.667,315.833 364,321.5C 363.583,322.756 362.75,323.423 361.5,323.5 Z"/></g>
<g><path style="opacity:1" fill="#050505" d="M 245.5,322.5 C 257.492,319.99 261.492,324.49 257.5,336C 253.514,336.499 249.514,336.666 245.5,336.5C 245.5,331.833 245.5,327.167 245.5,322.5 Z"/></g>
<g><path style="opacity:1" fill="#0b0b0b" d="M 181.5,341.5 C 176.167,342.833 170.833,342.833 165.5,341.5C 166.891,336.156 168.391,330.823 170,325.5C 172.333,324.167 174.667,324.167 177,325.5C 179.017,330.713 180.517,336.046 181.5,341.5 Z"/></g>
<g><path style="opacity:1" fill="#adadad" d="M 298.5,323.5 C 304.833,323.5 311.167,323.5 317.5,323.5C 317.5,342.833 317.5,362.167 317.5,381.5C 316.503,362.674 316.17,343.674 316.5,324.5C 310.31,324.823 304.31,324.49 298.5,323.5 Z"/></g>
<g><path style="opacity:1" fill="#bdbdbd" d="M 361.5,323.5 C 355.69,324.49 349.69,324.823 343.5,324.5C 343.83,343.674 343.497,362.674 342.5,381.5C 342.5,362.167 342.5,342.833 342.5,323.5C 348.833,323.5 355.167,323.5 361.5,323.5 Z"/></g>
<g><path style="opacity:1" fill="#838383" d="M 165.5,341.5 C 170.833,342.833 176.167,342.833 181.5,341.5C 182.043,341.56 182.376,341.893 182.5,342.5C 176.5,343.833 170.5,343.833 164.5,342.5C 164.624,341.893 164.957,341.56 165.5,341.5 Z"/></g>
</svg>
